<!DOCTYPE svg PUBLIC "-//W3C//DTD SVG 1.1//EN" "http://www.w3.org/Graphics/SVG/1.1/DTD/svg11.dtd">
<!-- Uploaded to: SVG Repo, www.svgrepo.com, Transformed by: SVG Repo Mixer Tools -->
<svg width="64px" height="64px" viewBox="0 0 72 72" xmlns="http://www.w3.org/2000/svg" fill="#000000">
<g id="SVGRepo_bgCarrier" stroke-width="0"/>
<g id="SVGRepo_tracerCarrier" stroke-linecap="round" stroke-linejoin="round"/>
<g id="SVGRepo_iconCarrier"> <g fill="none" fill-rule="evenodd"> <path d="M36,72 L36,72 C55.882251,72 72,55.882251 72,36 L72,36 C72,16.117749 55.882251,-3.65231026e-15 36,0 L36,0 C16.117749,3.65231026e-15 -2.4348735e-15,16.117749 0,36 L0,36 C2.4348735e-15,55.882251 16.117749,72 36,72 Z" fill="#242ec2"/> <path d="M40.4596332,29.0060506 C38.5597622,29.4264377 36.9060848,31.2868248 37.4321493,33.7290183 C37.8362783,35.6079861 39.7315041,37.2105667 42.1005364,36.7321151 C43.9702138,36.3523732 45.6099557,34.4641151 45.1454396,32.0799861 C44.7796332,30.2021796 42.8414396,28.4788248 40.4596332,29.0060506 M46.1696977,42.0891474 C46.0860848,44.2166312 46.4437622,47.2708248 45.8526654,49.1416635 C44.1838912,54.427857 38.8930525,53.6706957 36.738859,51.4654054 C35.9096977,50.6153409 36.0235041,49.875599 36.0235041,48.5134054 L36.0235041,44.8541796 C35.8783428,44.5685022 35.1862138,44.4210183 34.9016977,44.3466957 C34.8854396,45.4650183 34.8982138,46.5914699 34.8982138,47.7097925 C34.8982138,48.7386957 35.0979557,50.1647603 34.5358912,50.8534054 C33.4605364,52.1714699 31.4410525,52.583728 29.5423428,51.6128893 C28.6690525,51.1669538 28.1696977,50.7663086 27.5170525,50.2460506 C27.0920203,49.9069538 26.2466009,49.011599 26.0015686,48.2811474 C25.7135686,47.4194699 25.9295686,42.8706957 25.8773106,41.5514699 C24.4605364,41.1380506 22.1484074,39.9210183 20.9662138,39.2172764 C20.1207944,38.7121151 18.2476332,36.9469538 18.0374396,35.8983086 C17.7424719,34.4165022 19.2800203,35.3850183 19.5157622,35.4883732 C19.538988,32.6943086 19.5180848,29.8909538 19.5180848,27.095728 C19.5180848,24.531599 19.0918912,21.2950828 20.5481493,19.643728 C22.3295686,17.6242441 24.1330525,18.0341796 27.3765364,18.0341796 C29.7850525,18.0341796 47.3263428,17.9343086 48.3645364,18.0783086 C49.7011815,18.2629538 50.4896977,18.8970183 51.1179557,19.5961151 C51.830988,20.3904377 52.1840203,21.3670828 52.1898267,22.7223086 C52.1956332,24.3086312 52.0980848,34.835728 52.2327944,35.4361151 C52.3884074,35.1620506 52.946988,34.835728 53.5171815,34.9646312 C53.9921493,35.7183086 53.279117,37.0421796 52.8947299,37.6205022 C51.0215686,40.4377925 47.322859,41.143857 46.1696977,42.0891474 M21.6873751,36.7994699 C21.563117,35.7241151 21.6618267,34.0367603 21.6618267,32.8975345 C21.6618267,30.8292764 21.4922783,22.3379216 21.8662138,21.4959861 C22.2912461,20.5414054 23.1018267,20.1744377 24.4291815,20.175599 C32.094859,20.1883732 39.9161493,20.1140506 47.5481493,20.175599 C48.779117,20.1848893 49.5513751,20.7016635 49.8927944,21.6260506 C50.2423428,22.5736635 50.0472461,34.8624377 50.0437622,36.9388248 C49.0636332,37.2709538 48.0184719,37.7993409 46.9198912,38.1628248 C43.4453106,39.3113409 39.7547299,38.039728 36.8329235,39.0512119 C36.0374396,39.327599 36.0316332,39.4530183 36.0200203,40.3948248 C35.7343428,40.2682441 35.6460848,40.099857 35.3824719,39.8826957 C33.4558912,38.291728 31.6767944,38.9466957 28.7155041,38.6981796 C25.0678912,38.3927603 24.5685364,38.3091474 21.6873751,36.7994699 M30.0010525,29.0443732 C24.9146009,30.2927603 26.7436332,37.823728 31.7406654,36.7239861 C33.5964074,36.3140506 35.3023428,34.4106957 34.7298267,31.9650183 C34.298988,30.1243732 32.3573106,28.4648893 30.0010525,29.0443732" fill="#FFF"/> </g> </g>
</svg>