<svg class="animated" id="freepik_stories-file-bundle" xmlns="http://www.w3.org/2000/svg" viewBox="0 0 500 500" version="1.1" xmlns:xlink="http://www.w3.org/1999/xlink" xmlns:svgjs="http://svgjs.com/svgjs"><style>svg#freepik_stories-file-bundle:not(.animated) .animable {opacity: 0;}svg#freepik_stories-file-bundle.animated #freepik--background-complete--inject-406 {animation: 1s 1 forwards cubic-bezier(.36,-0.01,.5,1.38) slideUp;animation-delay: 0s;}svg#freepik_stories-file-bundle.animated #freepik--Shadow--inject-406 {animation: 1s 1 forwards cubic-bezier(.36,-0.01,.5,1.38) zoomIn;animation-delay: 0s;}svg#freepik_stories-file-bundle.animated #freepik--Chair--inject-406 {animation: 1s 1 forwards cubic-bezier(.36,-0.01,.5,1.38) slideRight;animation-delay: 0s;}svg#freepik_stories-file-bundle.animated #freepik--Character--inject-406 {animation: 1s 1 forwards cubic-bezier(.36,-0.01,.5,1.38) slideUp;animation-delay: 0s;}svg#freepik_stories-file-bundle.animated #freepik--Desk--inject-406 {animation: 1s 1 forwards cubic-bezier(.36,-0.01,.5,1.38) slideUp;animation-delay: 0s;}            @keyframes slideUp {                0% {                    opacity: 0;                    transform: translateY(30px);                }                100% {                    opacity: 1;                    transform: inherit;                }            }                    @keyframes zoomIn {                0% {                    opacity: 0;                    transform: scale(0.5);                }                100% {                    opacity: 1;                    transform: scale(1);                }            }                    @keyframes slideRight {                0% {                    opacity: 0;                    transform: translateX(30px);                }                100% {                    opacity: 1;                    transform: translateX(0);                }            }        </style><g id="freepik--background-complete--inject-406" class="animable" style="transform-origin: 250px 228.23px;"><rect x="416.78" y="398.49" width="33.12" height="0.25" style="fill: rgb(235, 235, 235); transform-origin: 433.34px 398.615px;" id="el31mrbg84m0v" class="animable"></rect><rect x="322.53" y="401.21" width="8.69" height="0.25" style="fill: rgb(235, 235, 235); transform-origin: 326.875px 401.335px;" id="el3915ve92syp" class="animable"></rect><rect x="396.59" y="389.21" width="19.19" height="0.25" style="fill: rgb(235, 235, 235); transform-origin: 406.185px 389.335px;" id="elhsul8tuyhal" class="animable"></rect><rect x="52.46" y="390.89" width="43.19" height="0.25" style="fill: rgb(235, 235, 235); transform-origin: 74.055px 391.015px;" id="elpovvpeum2h" class="animable"></rect><rect x="104.56" y="390.89" width="6.33" height="0.25" style="fill: rgb(235, 235, 235); transform-origin: 107.725px 391.015px;" id="elf0dstjnd6f" class="animable"></rect><rect x="131.47" y="395.11" width="93.68" height="0.25" style="fill: rgb(235, 235, 235); transform-origin: 178.31px 395.235px;" id="elf5w9w9bwvz" class="animable"></rect><path d="M237,337.8H43.92a5.71,5.71,0,0,1-5.71-5.71V60.66A5.71,5.71,0,0,1,43.92,55H237a5.71,5.71,0,0,1,5.71,5.71V332.09A5.71,5.71,0,0,1,237,337.8ZM43.92,55.2a5.47,5.47,0,0,0-5.46,5.46V332.09a5.47,5.47,0,0,0,5.46,5.46H237a5.47,5.47,0,0,0,5.46-5.46V60.66A5.47,5.47,0,0,0,237,55.2Z" style="fill: rgb(235, 235, 235); transform-origin: 140.46px 196.4px;" id="elaswjqdujt7d" class="animable"></path><path d="M453.31,337.8H260.21a5.72,5.72,0,0,1-5.71-5.71V60.66A5.72,5.72,0,0,1,260.21,55h193.1A5.71,5.71,0,0,1,459,60.66V332.09A5.71,5.71,0,0,1,453.31,337.8ZM260.21,55.2a5.47,5.47,0,0,0-5.46,5.46V332.09a5.47,5.47,0,0,0,5.46,5.46h193.1a5.47,5.47,0,0,0,5.46-5.46V60.66a5.47,5.47,0,0,0-5.46-5.46Z" style="fill: rgb(235, 235, 235); transform-origin: 356.75px 196.4px;" id="el9lbl8sq8i8h" class="animable"></path><rect y="382.4" width="500" height="0.25" style="fill: rgb(235, 235, 235); transform-origin: 250px 382.525px;" id="elrml0kk89hq" class="animable"></rect><rect x="245.65" y="270.87" width="185.13" height="99.63" style="fill: rgb(230, 230, 230); transform-origin: 338.215px 320.685px;" id="elbbip8u5gbb" class="animable"></rect><rect x="248.86" y="374.64" width="11.64" height="8.79" style="fill: rgb(230, 230, 230); transform-origin: 254.68px 379.035px;" id="ele326dehqpd7" class="animable"></rect><rect x="433.28" y="263.46" width="11.64" height="119.97" style="fill: rgb(230, 230, 230); transform-origin: 439.1px 323.445px;" id="elhsd7at1rji9" class="animable"></rect><path d="M430.31,263.46H242.65v120h6.21v-6.72H427.21v6.72h6.21v-120ZM427.21,316H341.14V274.32h86.07ZM248.86,274.32h86.07v91.53H248.86Zm92.28,91.53V322.19h86.07v43.66Z" style="fill: rgb(240, 240, 240); transform-origin: 338.035px 323.46px;" id="elq7vzfm0zvs9" class="animable"></path><rect x="254.67" y="278.8" width="80.26" height="87.05" style="fill: rgb(245, 245, 245); transform-origin: 294.8px 322.325px;" id="el1tgpnbn3a9t" class="animable"></rect><path d="M331.3,319.72a3.73,3.73,0,1,1-3.73-3.73A3.73,3.73,0,0,1,331.3,319.72Z" style="fill: rgb(250, 250, 250); transform-origin: 327.57px 319.72px;" id="ele81n1bv730v" class="animable"></path><path d="M327.57,323.45a3.72,3.72,0,0,1-3.38-2.18,3.63,3.63,0,0,0-.35,1.55,3.73,3.73,0,0,0,7.46,0,3.63,3.63,0,0,0-.35-1.55A3.73,3.73,0,0,1,327.57,323.45Z" style="fill: rgb(224, 224, 224); transform-origin: 327.57px 323.905px;" id="elgmtzyfb3gv" class="animable"></path><polygon points="285.8 365.85 304.95 365.85 314.1 278.8 294.95 278.8 285.8 365.85" style="fill: rgb(250, 250, 250); transform-origin: 299.95px 322.325px;" id="elyzw100t9dd" class="animable"></polygon><polygon points="309.85 365.85 313.66 365.85 322.81 278.8 319 278.8 309.85 365.85" style="fill: rgb(250, 250, 250); transform-origin: 316.33px 322.325px;" id="eldd08nxodvn" class="animable"></polygon><rect x="352.95" y="278.71" width="7.58" height="37.23" style="fill: rgb(250, 250, 250); transform-origin: 356.74px 297.325px;" id="elez6hw9186xl" class="animable"></rect><rect x="384.4" y="278.71" width="7.58" height="37.23" style="fill: rgb(245, 245, 245); transform-origin: 388.19px 297.325px;" id="el1gc4jvjsi2ei" class="animable"></rect><rect x="360.53" y="281.33" width="7.58" height="34.62" style="fill: rgb(245, 245, 245); transform-origin: 364.32px 298.64px;" id="elfcb8xwamg3k" class="animable"></rect><rect x="376.81" y="281.33" width="7.58" height="34.62" style="fill: rgb(250, 250, 250); transform-origin: 380.6px 298.64px;" id="elmfarg1nwfr" class="animable"></rect><rect x="371.91" y="278.71" width="4.9" height="37.23" style="fill: rgb(235, 235, 235); transform-origin: 374.36px 297.325px;" id="eloaz8nljo3fj" class="animable"></rect><rect x="368.12" y="281.33" width="3.79" height="34.62" style="fill: rgb(250, 250, 250); transform-origin: 370.015px 298.64px;" id="el7xnrkekby3" class="animable"></rect><rect x="391.98" y="278.71" width="7.58" height="37.23" style="fill: rgb(235, 235, 235); transform-origin: 395.77px 297.325px;" id="elb0myjpszo7l" class="animable"></rect><rect x="399.56" y="281.33" width="7.58" height="34.62" style="fill: rgb(230, 230, 230); transform-origin: 403.35px 298.64px;" id="elkzv3n8jehl" class="animable"></rect><rect x="415.84" y="281.33" width="7.58" height="34.62" style="fill: rgb(230, 230, 230); transform-origin: 419.63px 298.64px;" id="elnha52jjiz4" class="animable"></rect><rect x="410.94" y="278.71" width="4.9" height="37.23" style="fill: rgb(250, 250, 250); transform-origin: 413.39px 297.325px;" id="elf4ey984vvae" class="animable"></rect><rect x="407.15" y="281.33" width="3.79" height="34.62" style="fill: rgb(235, 235, 235); transform-origin: 409.045px 298.64px;" id="el6k6v839crih" class="animable"></rect><rect x="423.43" y="279.6" width="3.79" height="36.35" style="fill: rgb(235, 235, 235); transform-origin: 425.325px 297.775px;" id="elssk9oj1vwh" class="animable"></rect><g id="elf1k94gwpz7"><rect x="419.63" y="328.62" width="7.58" height="37.23" style="fill: rgb(235, 235, 235); transform-origin: 423.42px 347.235px; transform: rotate(180deg);" class="animable"></rect></g><g id="elbnl9x3h2kbm"><rect x="388.19" y="328.62" width="7.58" height="37.23" style="fill: rgb(250, 250, 250); transform-origin: 391.98px 347.235px; transform: rotate(180deg);" class="animable"></rect></g><g id="el0b7zncz4svv5"><rect x="412.05" y="331.23" width="7.58" height="34.62" style="fill: rgb(250, 250, 250); transform-origin: 415.84px 348.54px; transform: rotate(180deg);" class="animable"></rect></g><g id="elttja4d4hqx"><rect x="395.77" y="331.23" width="7.58" height="34.62" style="fill: rgb(235, 235, 235); transform-origin: 399.56px 348.54px; transform: rotate(180deg);" class="animable"></rect></g><g id="elbn0me5sb55h"><rect x="403.36" y="328.62" width="4.9" height="37.23" style="fill: rgb(250, 250, 250); transform-origin: 405.81px 347.235px; transform: rotate(180deg);" class="animable"></rect></g><g id="elxlj93c57q2"><rect x="408.26" y="331.23" width="3.79" height="34.62" style="fill: rgb(245, 245, 245); transform-origin: 410.155px 348.54px; transform: rotate(180deg);" class="animable"></rect></g><g id="elniv8pmyxrk"><rect x="380.6" y="328.62" width="7.58" height="37.23" style="fill: rgb(235, 235, 235); transform-origin: 384.39px 347.235px; transform: rotate(180deg);" class="animable"></rect></g><g id="elvt2s4ja2gz"><rect x="373.02" y="331.23" width="7.58" height="34.62" style="fill: rgb(245, 245, 245); transform-origin: 376.81px 348.54px; transform: rotate(180deg);" class="animable"></rect></g><g id="el6j72h5yrk3a"><rect x="356.74" y="331.23" width="7.58" height="34.62" style="fill: rgb(230, 230, 230); transform-origin: 360.53px 348.54px; transform: rotate(180deg);" class="animable"></rect></g><g id="el21ed8oq0ks4"><rect x="364.33" y="328.62" width="4.9" height="37.23" style="fill: rgb(250, 250, 250); transform-origin: 366.78px 347.235px; transform: rotate(180deg);" class="animable"></rect></g><g id="elojnpkw0a1v"><rect x="348.05" y="328.62" width="4.9" height="37.23" style="fill: rgb(250, 250, 250); transform-origin: 350.5px 347.235px; transform: rotate(180deg);" class="animable"></rect></g><g id="elohlooakallh"><rect x="369.23" y="331.23" width="3.79" height="34.62" style="fill: rgb(235, 235, 235); transform-origin: 371.125px 348.54px; transform: rotate(180deg);" class="animable"></rect></g><g id="elkws6oh53wso"><rect x="352.95" y="329.5" width="3.79" height="36.35" style="fill: rgb(235, 235, 235); transform-origin: 354.845px 347.675px; transform: rotate(180deg);" class="animable"></rect></g><path d="M168.48,140.63c-.25-20.71-11.82-40-30.48-49.31A55.14,55.14,0,0,0,58.24,141c0,5.1,0,10.2,0,15.3V361.38c0,5.64-.66,11.74,0,17.34a6.77,6.77,0,0,1,0,.78,1.38,1.38,0,0,0,2.76,0V147c0-7.68.15-15.15,2.58-22.6a52.38,52.38,0,0,1,99.56,0,54.1,54.1,0,0,1,2.58,16.27,1.38,1.38,0,0,0,2.76,0Z" style="fill: rgb(245, 245, 245); transform-origin: 113.213px 233.199px;" id="elbxav7irvqdn" class="animable"></path><path d="M195.28,147.92a32.82,32.82,0,1,0-65.63,0Z" style="fill: rgb(240, 240, 240); transform-origin: 162.465px 131.224px;" id="elvb1q28de8th" class="animable"></path><path d="M166,115.29a32.82,32.82,0,0,1,29.3,32.63H136.69A32.82,32.82,0,0,1,166,115.29Z" style="fill: rgb(245, 245, 245); transform-origin: 165.995px 131.605px;" id="ely56ptx8bey" class="animable"></path><rect x="51.72" y="284.78" width="16" height="97.67" style="fill: rgb(245, 245, 245); transform-origin: 59.72px 333.615px;" id="elr3dwj8z9vk" class="animable"></rect><path d="M42.23,376.92H77a5.86,5.86,0,0,1,5.86,5.86v.27a0,0,0,0,1,0,0H36.36a0,0,0,0,1,0,0v-.27a5.86,5.86,0,0,1,5.86-5.86Z" style="fill: rgb(245, 245, 245); transform-origin: 59.61px 379.985px;" id="elwb47j28mg3" class="animable"></path><path d="M416.76,238.1l1.26-9.75H407l1.25,9.75a13,13,0,0,0-8.78,12.32,23.26,23.26,0,0,0,4.75,13h16.6a23.26,23.26,0,0,0,4.75-13A13,13,0,0,0,416.76,238.1Z" style="fill: rgb(245, 245, 245); transform-origin: 412.52px 245.885px;" id="elays1qp1ep2a" class="animable"></path><path d="M423.91,198.52s-12.19,19.17-11.75,42.82C412.16,241.34,418.73,212.79,423.91,198.52Z" style="fill: rgb(240, 240, 240); transform-origin: 418.029px 219.93px;" id="elq4idl22i249" class="animable"></path><path d="M401.41,188.5s15.28,22.42,12,50.58C413.39,239.08,408,203.5,401.41,188.5Z" style="fill: rgb(240, 240, 240); transform-origin: 407.641px 213.79px;" id="el6zylniuvmjh" class="animable"></path><path d="M413.16,245.91s4-29.12-13.92-37.91C399.24,208,408.73,215.31,413.16,245.91Z" style="fill: rgb(245, 245, 245); transform-origin: 406.391px 226.955px;" id="elo7wdwppt6ts" class="animable"></path><path d="M415,254.32c-.05-.34-4.63-34.29,2.26-63.51l1,.23c-6.84,29-2.29,62.81-2.24,63.14Z" style="fill: rgb(245, 245, 245); transform-origin: 415.861px 222.565px;" id="elit7mx36s5kl" class="animable"></path><path d="M414.81,191.33l-.33.08a.87.87,0,0,0-.65,1.11l.45,1.44a.88.88,0,0,0,1.47.35l.52-.54a.88.88,0,0,1,1.44.29l.79,2a.88.88,0,0,0,1.29.41l1.64-1a.88.88,0,0,0,.14-1.36l-.28-.27a.88.88,0,0,1,.56-1.5l1.45-.08a.89.89,0,0,0,.82-1l-.2-1.23a.88.88,0,0,0-1.27-.63l-.1.05a.87.87,0,0,1-1.22-1.1l.44-1.1a.87.87,0,0,0-.72-1.2l-1.56-.16a.87.87,0,0,0-1,.87h0a.88.88,0,0,1-1.63.46l-.21-.36a.88.88,0,0,0-1.37-.16l-1.11,1.11a.88.88,0,0,0,0,1.28l.94.82A.87.87,0,0,1,414.81,191.33Z" style="fill: rgb(235, 235, 235); transform-origin: 418.959px 191.245px;" id="elvtz4nx6cqa" class="animable"></path></g><g id="freepik--Shadow--inject-406" class="animable" style="transform-origin: 245.18px 412.39px;"><ellipse id="freepik--path--inject-406" cx="245.18" cy="412.39" rx="193.89" ry="11.32" style="fill: rgb(245, 245, 245); transform-origin: 245.18px 412.39px;" class="animable"></ellipse></g><g id="freepik--Chair--inject-406" class="animable" style="transform-origin: 223.03px 312.806px;"><g id="el99gjggcnl6v"><rect x="216.03" y="303.12" width="10.08" height="46.8" style="fill: rgb(64, 123, 255); transform-origin: 221.07px 326.52px; transform: rotate(180deg);" class="animable"></rect></g><g id="eldmfo2cv0nk7"><rect x="216.03" y="303.12" width="10.08" height="46.8" style="fill: rgb(255, 255, 255); opacity: 0.3; transform-origin: 221.07px 326.52px; transform: rotate(180deg);" class="animable"></rect></g><g id="elaq3633figcu"><rect x="228.27" y="250.14" width="8.06" height="46.8" style="fill: rgb(64, 123, 255); transform-origin: 232.3px 273.54px; transform: rotate(180deg);" class="animable"></rect></g><g id="elwsldgmenqej"><rect x="228.27" y="250.14" width="8.06" height="46.8" style="fill: rgb(255, 255, 255); opacity: 0.3; transform-origin: 232.3px 273.54px; transform: rotate(180deg);" class="animable"></rect></g><path d="M253,276.55a243.65,243.65,0,0,1-41.32,0c-9.63-.82-17.4-9.93-17.4-19.56V238c0-9.64,7.77-16.15,17.4-15.33a243.65,243.65,0,0,0,41.32,0c9.63-.82,17.39,5.69,17.39,15.33v19C270.35,266.62,262.59,275.73,253,276.55Z" style="fill: rgb(64, 123, 255); transform-origin: 232.335px 250.014px;" id="el55euq2r3eq5" class="animable"></path><g id="elqwjj1agogj"><g style="opacity: 0.4; transform-origin: 232.335px 250.014px;" class="animable"><path d="M253,276.55a243.65,243.65,0,0,1-41.32,0c-9.63-.82-17.4-9.93-17.4-19.56V238c0-9.64,7.77-16.15,17.4-15.33a243.65,243.65,0,0,0,41.32,0c9.63-.82,17.39,5.69,17.39,15.33v19C270.35,266.62,262.59,275.73,253,276.55Z" style="fill: rgb(255, 255, 255); transform-origin: 232.335px 250.014px;" id="el6k9nauitad" class="animable"></path></g></g><path d="M184.4,295.9h73.33a8.73,8.73,0,0,1,8.73,8.73v1.84a3.85,3.85,0,0,1-3.85,3.85H179.52a3.85,3.85,0,0,1-3.85-3.85v-1.84A8.73,8.73,0,0,1,184.4,295.9Z" style="fill: rgb(64, 123, 255); transform-origin: 221.065px 303.11px;" id="elv2gsr613es" class="animable"></path><g id="elc9bdevj1a0j"><path d="M184.4,295.9h73.33a8.73,8.73,0,0,1,8.73,8.73v1.84a3.85,3.85,0,0,1-3.85,3.85H179.52a3.85,3.85,0,0,1-3.85-3.85v-1.84A8.73,8.73,0,0,1,184.4,295.9Z" style="fill: rgb(255, 255, 255); opacity: 0.4; transform-origin: 221.065px 303.11px;" class="animable"></path></g><path d="M265.62,399.21l-38.3-7.74a1.58,1.58,0,0,0,.05-.38v-43.7a1.54,1.54,0,0,0-1.55-1.55h-9.51a1.54,1.54,0,0,0-1.55,1.55v43.7a1.58,1.58,0,0,0,.05.38l-38.3,7.74a1,1,0,0,0-.84,1V402a1.05,1.05,0,0,0,1.21,1l41.93-6.35v5.08a1.24,1.24,0,0,0,1.24,1.25h2a1.24,1.24,0,0,0,1.24-1.25v-5.08L265.25,403a1.05,1.05,0,0,0,1.21-1v-1.74A1,1,0,0,0,265.62,399.21Z" style="fill: rgb(64, 123, 255); transform-origin: 221.066px 374.426px;" id="elj2ivpzoysvh" class="animable"></path><g id="eld70gg77e5ho"><path d="M265.62,399.21l-38.3-7.74a1.58,1.58,0,0,0,.05-.38v-43.7a1.54,1.54,0,0,0-1.55-1.55h-9.51a1.54,1.54,0,0,0-1.55,1.55v43.7a1.58,1.58,0,0,0,.05.38l-38.3,7.74a1,1,0,0,0-.84,1V402a1.05,1.05,0,0,0,1.21,1l41.93-6.35v5.08a1.24,1.24,0,0,0,1.24,1.25h2a1.24,1.24,0,0,0,1.24-1.25v-5.08L265.25,403a1.05,1.05,0,0,0,1.21-1v-1.74A1,1,0,0,0,265.62,399.21Z" style="fill: rgb(255, 255, 255); opacity: 0.4; transform-origin: 221.066px 374.426px;" class="animable"></path></g></g><g id="freepik--Character--inject-406" class="animable" style="transform-origin: 328.52px 250.714px;"><path d="M268.67,215.57s-6,39.28-5,73.69,7,96.76,7,96.76h16.46s-1.59-75.81-.29-95.26,13.71-76,13.71-76Z" style="fill: rgb(64, 123, 255); transform-origin: 282.054px 300.39px;" id="elpeaciyc3uyp" class="animable"></path><g id="el8kxfja6f3gm"><path d="M268.67,215.57s-6,39.28-5,73.69,7,96.76,7,96.76h16.46s-1.59-75.81-.29-95.26,13.71-76,13.71-76Z" style="opacity: 0.6; transform-origin: 282.054px 300.39px;" class="animable"></path></g><g id="el4xni7ot7hjg"><path d="M292.71,228.25,289.86,227s-6.78,37.18-2.76,60.58c1.25-12.23,5.33-33.69,8.68-50.16Z" style="opacity: 0.4; transform-origin: 290.803px 257.29px;" class="animable"></path></g><polygon points="282.15 387.85 282.47 397.95 275.53 398.11 274.7 387.3 282.15 387.85" style="fill: rgb(255, 195, 189); transform-origin: 278.585px 392.705px;" id="elz67w1ohx6pq" class="animable"></polygon><g id="ely7zj2a3hdef"><polygon points="275.12 392.7 282.3 392.7 282.15 387.85 277.67 387.51 274.72 387.51 275.12 392.7" style="opacity: 0.1; transform-origin: 278.51px 390.105px;" class="animable"></polygon></g><path d="M271.55,398.63a3.41,3.41,0,0,1-2.34-.69.71.71,0,0,1,.05-.82.94.94,0,0,1,.61-.42c1.35-.33,4.09,1.37,4.21,1.44a.18.18,0,0,1,.08.2.19.19,0,0,1-.16.15A13.38,13.38,0,0,1,271.55,398.63Zm-1.22-1.6a1.5,1.5,0,0,0-.37,0,.51.51,0,0,0-.38.25c-.15.23-.1.35-.05.41.35.54,2.37.62,3.87.49A8.73,8.73,0,0,0,270.33,397Z" style="fill: rgb(64, 123, 255); transform-origin: 271.635px 397.649px;" id="el1so2xkst44t" class="animable"></path><path d="M274,398.49h-.07c-.95-.46-2.81-2.26-2.61-3.16,0-.21.2-.47.72-.51a1.48,1.48,0,0,1,1.05.36c1,.88,1.13,3,1.14,3.15a.18.18,0,0,1-.23.17Zm-1.84-3.31-.11,0c-.34,0-.37.16-.39.21-.06.54,1.15,1.94,2.12,2.56a4.45,4.45,0,0,0-1-2.49,1,1,0,0,0-.65-.26Z" style="fill: rgb(64, 123, 255); transform-origin: 272.768px 396.662px;" id="el2rqjkn4ig1p" class="animable"></path><path d="M274.86,397.4l8.74.3a.7.7,0,0,1,.67.57l1.33,7.17a1.16,1.16,0,0,1-.92,1.37,1.1,1.1,0,0,1-.25,0c-3.15-.16-5.95-.43-9.87-.56-4.63-.16-3.47.43-8.92.32-3.28-.07-3.75-3.81-2.35-3.95,6.39-.58,7.12-2.48,9.65-4.67A2.82,2.82,0,0,1,274.86,397.4Z" style="fill: rgb(38, 50, 56); transform-origin: 274.085px 402.104px;" id="el81ve56npg4n" class="animable"></path><polygon points="268.7 385.02 269.7 390.01 288.15 390.01 288.15 385.02 268.7 385.02" style="fill: rgb(64, 123, 255); transform-origin: 278.425px 387.515px;" id="elqhh1fq0ezs" class="animable"></polygon><polygon points="325.63 384.85 326.94 397.95 320.01 398.11 318.18 386.3 325.63 384.85" style="fill: rgb(255, 195, 189); transform-origin: 322.56px 391.48px;" id="elbix9vfawiv6" class="animable"></polygon><path d="M316,398.63a3.38,3.38,0,0,1-2.33-.69.71.71,0,0,1,0-.82.94.94,0,0,1,.61-.42c1.35-.33,4.09,1.37,4.21,1.44a.2.2,0,0,1,.09.2.19.19,0,0,1-.16.15A13.54,13.54,0,0,1,316,398.63ZM314.8,397a1.47,1.47,0,0,0-.36,0,.51.51,0,0,0-.38.25c-.15.23-.11.35-.06.41.36.54,2.38.62,3.87.49A8.73,8.73,0,0,0,314.8,397Z" style="fill: rgb(64, 123, 255); transform-origin: 316.061px 397.649px;" id="elos70tiqtpb" class="animable"></path><path d="M318.45,398.49h-.08c-.94-.46-2.81-2.26-2.61-3.16,0-.21.2-.47.73-.51a1.46,1.46,0,0,1,1,.36c1,.88,1.13,3,1.14,3.15a.18.18,0,0,1-.09.16A.2.2,0,0,1,318.45,398.49Zm-1.85-3.31-.11,0c-.34,0-.36.16-.38.21-.07.54,1.15,1.94,2.12,2.56a4.53,4.53,0,0,0-1-2.49,1,1,0,0,0-.65-.26Z" style="fill: rgb(64, 123, 255); transform-origin: 317.188px 396.657px;" id="elxjyn4hone2r" class="animable"></path><path d="M319.33,397.4l8.74.3a.7.7,0,0,1,.67.57l1.34,7.17a1.18,1.18,0,0,1-.93,1.37,1,1,0,0,1-.25,0c-3.15-.16-5.94-.43-9.86-.56-4.63-.16-3.48.43-8.92.32-3.28-.07-3.75-3.81-2.36-3.95,6.39-.58,7.12-2.48,9.65-4.67A2.83,2.83,0,0,1,319.33,397.4Z" style="fill: rgb(38, 50, 56); transform-origin: 318.562px 402.104px;" id="el0n3e1031ouja" class="animable"></path><g id="el20rb4qmguu8"><polygon points="319.02 391.75 326.25 391.06 325.83 386.91 318.38 387.63 319.02 391.75" style="opacity: 0.1; transform-origin: 322.315px 389.33px;" class="animable"></polygon></g><path d="M288.72,214.52s.7,49.12,8.28,85.87S313.93,386,313.93,386l15.58-2s-5.14-53.86-10.05-94.76-6.9-77.56-6.9-77.56Z" style="fill: rgb(64, 123, 255); transform-origin: 309.115px 298.84px;" id="elkejimf6am2f" class="animable"></path><g id="elk6xzeokmfe"><path d="M288.72,214.52s.7,49.12,8.28,85.87S313.93,386,313.93,386l15.58-2s-5.14-53.86-10.05-94.76-6.9-77.56-6.9-77.56Z" style="opacity: 0.6; transform-origin: 309.115px 298.84px;" class="animable"></path></g><polygon points="312.23 385.15 313.74 390.01 332.09 388.07 331.57 383.11 312.23 385.15" style="fill: rgb(64, 123, 255); transform-origin: 322.16px 386.56px;" id="el5layhw87srf" class="animable"></polygon><path d="M296.8,145.88a66.93,66.93,0,0,0-13.34,1.56c-1.27,3.1-3.53,8.64-4.1,10.4-.8,2.49-.32,8.67-1.69,8.95s-4.3-3-6.67-7.33a15.76,15.76,0,0,0-4.46-5c-10.09,6.63-13.6,14.69-13.6,14.69,13.39,17.7,14.71,53.36,14.71,53.36,31.22,2.91,46.28-4.9,46.28-4.9C307.79,192,303,160.54,301.41,149.74A4.53,4.53,0,0,0,296.8,145.88Z" style="fill: rgb(64, 123, 255); transform-origin: 283.435px 184.519px;" id="elhy85djiyqgd" class="animable"></path><g id="elq202ha0kq1a"><g style="opacity: 0.7; transform-origin: 283.435px 184.519px;" class="animable"><path d="M296.8,145.88a66.93,66.93,0,0,0-13.34,1.56c-1.27,3.1-3.53,8.64-4.1,10.4-.8,2.49-.32,8.67-1.69,8.95s-4.3-3-6.67-7.33a15.76,15.76,0,0,0-4.46-5c-10.09,6.63-13.6,14.69-13.6,14.69,13.39,17.7,14.71,53.36,14.71,53.36,31.22,2.91,46.28-4.9,46.28-4.9C307.79,192,303,160.54,301.41,149.74A4.53,4.53,0,0,0,296.8,145.88Z" style="fill: rgb(255, 255, 255); transform-origin: 283.435px 184.519px;" id="elnb512l3pek" class="animable"></path><g id="elzqhi9qpj66k"><path d="M259.77,172.63s4.88,1.53,9.12,10.32c9.77,20.24-1.71,18.33-1.71,18.33S262.27,178.69,259.77,172.63Z" style="opacity: 0.1; transform-origin: 266.3px 186.979px;" class="animable"></path></g><g id="elf2vy6x64b5u"><path d="M304.77,171.18c-.91-5.47-1.69-10.37-2.3-14.39l-1-.45-3.86,1A66.12,66.12,0,0,0,304.77,171.18Z" style="opacity: 0.1; transform-origin: 301.19px 163.76px;" class="animable"></path></g></g></g><path d="M318.09,149.22s22,4,25.68,7.36,13.3,18.62,16.62,23.44,4.23,17.07-1.87,16.6-3.58-8.62-3.58-8.62a13.33,13.33,0,0,1-2-7.48s-7.81-7.82-15.13-16.13l-19.23-4.32Z" style="fill: rgb(255, 195, 189); transform-origin: 340.543px 172.927px;" id="el27oq01hv2kt" class="animable"></path><path d="M297.25,149.22s1.5-6.94,19.35-2.37a153.85,153.85,0,0,1,.57,15.52s-17.79,2.14-19.29-4S297.25,149.22,297.25,149.22Z" style="fill: rgb(64, 123, 255); transform-origin: 307.092px 154.012px;" id="el866zazxtnta" class="animable"></path><g id="elsdx9z15q4s8"><path d="M297.25,149.22s1.5-6.94,19.35-2.37a153.85,153.85,0,0,1,.57,15.52s-17.79,2.14-19.29-4S297.25,149.22,297.25,149.22Z" style="fill: rgb(255, 255, 255); opacity: 0.7; transform-origin: 307.092px 154.012px;" class="animable"></path></g><path d="M315.42,145.86s1,4.4,1.18,17.53h3.86s1.19-10.38-1.22-17.53Z" style="fill: rgb(64, 123, 255); transform-origin: 318.087px 154.625px;" id="eltgv0pv2k2t" class="animable"></path><path d="M282.17,121.78a8.7,8.7,0,0,0,7,2.66,8.15,8.15,0,0,1-8.34.67S278.58,121.23,282.17,121.78Z" style="fill: rgb(38, 50, 56); transform-origin: 284.652px 123.84px;" id="el513udiloy8l" class="animable"></path><path d="M267.14,155.34c.59-5.23-.83-8.92-1-15.26l11.77-4.54c1,6,1.32,13.4,6.46,14.58,0,0-3.6,2.77-4.57,6-1.36,4.57-.45,10.14-2.63,10.59C273.41,167.52,269.68,156,267.14,155.34Z" style="fill: rgb(255, 195, 189); transform-origin: 275.255px 151.145px;" id="el6baeepjq19f" class="animable"></path><g id="eltx2wrrs1cl"><path d="M279.49,144.42a10.89,10.89,0,0,0,1.8,3.74c-5.85,3.18-10.21,1.31-13.11-1.86A43.88,43.88,0,0,1,279.49,144.42Z" style="opacity: 0.2; isolation: isolate; transform-origin: 274.735px 147.113px;" class="animable"></path></g><path d="M261.34,129.5c1.05,8.07,1.23,12.84,5.62,16.69,6.58,5.78,16.33,1.31,17.72-6.92,1.25-7.41-.66-19.35-8.81-22a11.2,11.2,0,0,0-14.53,12.2Z" style="fill: rgb(255, 195, 189); transform-origin: 273.132px 132.767px;" id="elivhcbdu0k0a" class="animable"></path><path d="M280.17,132.69a23.78,23.78,0,0,0,3.53,5.4,3.81,3.81,0,0,1-3.11.83Z" style="fill: rgb(237, 137, 62); transform-origin: 281.935px 135.834px;" id="elisy0oehsam" class="animable"></path><path d="M274.86,131.28c0,.65.39,1.16.8,1.16s.76-.56.74-1.21-.39-1.16-.81-1.15S274.87,130.67,274.86,131.28Z" style="fill: rgb(38, 50, 56); transform-origin: 275.63px 131.26px;" id="elf1x40rgq1if" class="animable"></path><path d="M282.17,131.05c0,.66.39,1.17.81,1.16s.75-.56.74-1.21-.39-1.16-.81-1.14S282.16,130.41,282.17,131.05Z" style="fill: rgb(38, 50, 56); transform-origin: 282.945px 131.035px;" id="ellyxw14342p" class="animable"></path><path d="M271.86,129.91a.39.39,0,0,0,.4-.22,4.46,4.46,0,0,1,3-2,.4.4,0,0,0,.32-.45.38.38,0,0,0-.43-.31h0a5.16,5.16,0,0,0-3.55,2.45.39.39,0,0,0,.19.5h0A.2.2,0,0,0,271.86,129.91Z" style="fill: rgb(38, 50, 56); transform-origin: 273.577px 128.419px;" id="elmhj06worr7" class="animable"></path><path d="M284.26,127.6a.38.38,0,0,0,.29-.68,3.74,3.74,0,0,0-3.45-.69.36.36,0,0,0-.24.45v0a.38.38,0,0,0,.48.23h0a3,3,0,0,1,2.69.58A.32.32,0,0,0,284.26,127.6Z" style="fill: rgb(38, 50, 56); transform-origin: 282.774px 126.838px;" id="el3gw0rxoqgcq" class="animable"></path><path d="M272.93,139a7.47,7.47,0,0,0,6.43,1.24,13.39,13.39,0,0,0-.2,3.17S273.94,145.49,272.93,139Z" style="fill: rgb(38, 50, 56); transform-origin: 276.145px 141.364px;" id="el2jasz0j98vd" class="animable"></path><path d="M278.42,140.41a7.64,7.64,0,0,1-5.49-1.45,11.75,11.75,0,0,0,.32,1.43,6.56,6.56,0,0,0,4.87,1.49Z" style="fill: rgb(255, 255, 255); transform-origin: 275.675px 140.437px;" id="elepnm38gopt5" class="animable"></path><path d="M278.85,143.47c-.67-1.46-3.37-1.4-4.67-1.27A4.26,4.26,0,0,0,278.85,143.47Z" style="fill: rgb(193, 59, 55); transform-origin: 276.515px 142.925px;" id="elty7y7a5i3kj" class="animable"></path><path d="M261.93,136.74s7.73-1.57,3-10.38c0,0,4.91-.14,6.61-3.65,0,0,12.76,3,15.67-1.76l-3.48-.48s5.86-.85,4.13-5.67a7.16,7.16,0,0,1-5.91,2s4.62-4.54-.47-6.12c0,0-2.47,3.75-13.29,3.08s-13.14,5.57-12.32,8.48l.41,1.42s-4,6.41,1.41,10.39S261.93,136.74,261.93,136.74Z" style="fill: rgb(38, 50, 56); transform-origin: 271.518px 123.81px;" id="elx58fniedlif" class="animable"></path><path d="M256.27,123.62s-3.49-.87-3.19-3.94H253c-.33,1.18-1.17,5.42,3.92,5Z" style="fill: rgb(38, 50, 56); transform-origin: 254.829px 122.195px;" id="elgxsm0cx47kf" class="animable"></path><path d="M258.5,136.76a7.64,7.64,0,0,0,3.89,4.42c2.44,1.17,4.15-.89,3.88-3.44-.23-2.29-1.79-5.67-4.44-5.77S257.73,134.39,258.5,136.76Z" style="fill: rgb(255, 195, 189); transform-origin: 262.296px 136.742px;" id="elpbb9x8t9xvo" class="animable"></path><path d="M266.33,153.08a35.87,35.87,0,0,1,11,12.6s.59-14.59,5-18.83h4.45v5.61l-4.45.38,4.45,2.92s-7.86,9.67-8.73,14.16c0,0-6-5.74-9.71-7.23l.85-3.37-3.49,1.74-1.87-4.74Z" style="fill: rgb(64, 123, 255); transform-origin: 275.305px 158.385px;" id="eltczy9mkeasb" class="animable"></path><polygon points="327.1 226.07 290.71 214.52 285.98 175.53 322.37 187.08 327.1 226.07" style="fill: rgb(64, 123, 255); transform-origin: 306.54px 200.8px;" id="el98z0jloovr9" class="animable"></polygon><polygon points="327.1 226.07 359.67 206.16 354.94 167.16 322.37 187.08 327.1 226.07" style="fill: rgb(64, 123, 255); transform-origin: 341.02px 196.615px;" id="ellhwvnpq5dsg" class="animable"></polygon><g id="elg49pqba1o7"><polygon points="327.1 226.07 359.67 206.16 354.94 167.16 322.37 187.08 327.1 226.07" style="opacity: 0.2; transform-origin: 341.02px 196.615px;" class="animable"></polygon></g><polygon points="354.94 167.16 322.37 187.08 285.98 175.53 318.55 155.61 354.94 167.16" style="fill: rgb(64, 123, 255); transform-origin: 320.46px 171.345px;" id="el1zt455shurm" class="animable"></polygon><g id="elw0etu5dz0fl"><polygon points="354.94 167.16 322.37 187.08 285.98 175.53 318.55 155.61 354.94 167.16" style="opacity: 0.5; transform-origin: 320.46px 171.345px;" class="animable"></polygon></g><path d="M354.94,167.16l-36.36-11.54,3.81,31.45Z" style="fill: rgb(64, 123, 255); transform-origin: 336.76px 171.345px;" id="el3nfr47pfxw3" class="animable"></path><g id="el48z8lb6aup2"><path d="M354.94,167.16l-36.36-11.54,3.81,31.45Z" style="opacity: 0.3; transform-origin: 336.76px 171.345px;" class="animable"></path></g><polygon points="322.37 187.08 311.77 204.33 275.38 192.78 285.98 175.53 322.37 187.08" style="fill: rgb(64, 123, 255); transform-origin: 298.875px 189.93px;" id="ely6n31yofvt" class="animable"></polygon><g id="el3vl5tyku0md"><polygon points="322.37 187.08 311.77 204.33 275.38 192.78 285.98 175.53 322.37 187.08" style="fill: rgb(255, 255, 255); opacity: 0.3; transform-origin: 298.875px 189.93px;" class="animable"></polygon></g><polygon points="322.37 187.08 336.79 201.3 369.36 181.38 354.94 167.16 322.37 187.08" style="fill: rgb(64, 123, 255); transform-origin: 345.865px 184.23px;" id="elyndjckfqt7l" class="animable"></polygon><g id="el75mey5ep5hv"><polygon points="322.37 187.08 336.79 201.3 369.36 181.38 354.94 167.16 322.37 187.08" style="fill: rgb(255, 255, 255); opacity: 0.3; transform-origin: 345.865px 184.23px;" class="animable"></polygon></g><path d="M365.43,169l-36.06-11.44-10.82-2,36.39,11.55,10.49,1.9Z" style="fill: rgb(64, 123, 255); transform-origin: 341.99px 162.285px;" id="el87u2124qngu" class="animable"></path><g id="elczb7u5x95bv"><path d="M365.43,169l-36.06-11.44-10.82-2,36.39,11.55,10.49,1.9Z" style="fill: rgb(255, 255, 255); opacity: 0.2; transform-origin: 341.99px 162.285px;" class="animable"></path></g><path d="M308.51,160.1s-31.35,19.17-32.15,19.67v.06l9.62-4.3,32.57-19.92Z" style="fill: rgb(64, 123, 255); transform-origin: 297.455px 167.72px;" id="elw8w0r6uruad" class="animable"></path><g id="elllnfqn52cne"><path d="M308.51,160.1s-31.35,19.17-32.15,19.67v.06l9.62-4.3,32.57-19.92Z" style="fill: rgb(255, 255, 255); opacity: 0.2; transform-origin: 297.455px 167.72px;" class="animable"></path></g><path d="M251.86,190.48s-7.74-12.33,0-20.82,15.43,15.1,15.43,15.1S260.48,183,251.86,190.48Z" style="fill: rgb(64, 123, 255); transform-origin: 257.855px 179.148px;" id="el72obq7obo5g" class="animable"></path><g id="eldaj79znmzgk"><path d="M251.86,190.48s-7.74-12.33,0-20.82,15.43,15.1,15.43,15.1S260.48,183,251.86,190.48Z" style="fill: rgb(255, 255, 255); opacity: 0.7; transform-origin: 257.855px 179.148px;" class="animable"></path></g><path d="M265.79,186s5.66,11.31,8.15,16.63c0,0,8,3.24,24.93,5.69,0,0,8.62-5,13.31-3,5.17,2.18,6.56,4.51,4.15,7.31s-7.14,1.83-7.14,1.83a20.65,20.65,0,0,1-8.65.33s-15.36.47-29.43-2.66C262.5,210.19,255,189.93,255,189.93Z" style="fill: rgb(255, 195, 189); transform-origin: 286.238px 200.549px;" id="eltzqcf3tal8" class="animable"></path><path d="M250.7,190.48a15.94,15.94,0,0,1,7.7-5.72,22.33,22.33,0,0,1,9.28-1.19l.94,4.17s-6.64-1.16-15.68,5.74Z" style="fill: rgb(64, 123, 255); transform-origin: 259.66px 188.486px;" id="elo1fj92ad6gh" class="animable"></path><path d="M343.77,206.41V208L339,210.71v-1.23l2.67-5.75L339,205.24V203.7l4.68-2.7v1.23L341.05,208Z" style="fill: rgb(255, 255, 255); transform-origin: 341.385px 205.855px;" id="elfthb1dwbbhj" class="animable"></path><path d="M346.22,199.56v7l-1.6.92v-7Z" style="fill: rgb(255, 255, 255); transform-origin: 345.42px 203.52px;" id="elaowrr2hcop" class="animable"></path><path d="M352.5,198.32a5,5,0,0,1-2.44,3.81l-1.05.6v2.19l-1.59.92v-7l2.64-1.53C351.43,196.55,352.5,197,352.5,198.32Zm-1.59.92c0-.5-.36-.69-.85-.4l-1.05.6v1.8l1.05-.61A1.74,1.74,0,0,0,350.91,199.24Z" style="fill: rgb(255, 255, 255); transform-origin: 349.96px 201.39px;" id="el42xilks0h53" class="animable"></path><path d="M391.5,170.17,356.57,153.9a1.21,1.21,0,0,1-.59-1.61l21.77-46.72a1.2,1.2,0,0,1,1.6-.58l21.52,10,7.69,21.38L393.1,169.59A1.2,1.2,0,0,1,391.5,170.17Z" style="fill: rgb(64, 123, 255); transform-origin: 382.213px 137.58px;" id="el72fil496es4" class="animable"></path><g id="elay4dkq6l3x"><polygon points="408.56 136.4 400.87 115.02 399.73 114.48 391.42 132.32 407.07 139.61 408.56 136.4" style="opacity: 0.1; transform-origin: 399.99px 127.045px;" class="animable"></polygon></g><polygon points="408.62 136.28 394.11 129.53 400.87 115.02 408.62 136.28" style="fill: none; transform-origin: 401.365px 125.65px;" id="el840wpsi871c" class="animable"></polygon><g id="el7o3pu92lzdv"><polygon points="408.62 136.28 394.11 129.53 400.87 115.02 408.62 136.28" style="opacity: 0.2; transform-origin: 401.365px 125.65px;" class="animable"></polygon></g><g id="elkcdl27m7a4i"><rect x="370.97" y="128.98" width="28.51" height="18.07" style="fill: rgb(64, 123, 255); transform-origin: 385.225px 138.015px; transform: rotate(24.98deg);" class="animable"></rect></g><g id="elpk9n73oczf"><rect x="370.97" y="128.98" width="28.51" height="18.07" style="fill: rgb(255, 255, 255); opacity: 0.7; transform-origin: 385.225px 138.015px; transform: rotate(24.98deg);" class="animable"></rect></g><polygon points="378.36 137.93 370.11 140.93 381.36 146.18 378.36 137.93" style="fill: rgb(64, 123, 255); transform-origin: 375.735px 142.055px;" id="el8wz1lgup2tu" class="animable"></polygon><g id="eljnnneiqimuc"><polygon points="378.36 137.93 370.11 140.93 381.36 146.18 378.36 137.93" style="fill: rgb(255, 255, 255); opacity: 0.2; transform-origin: 375.735px 142.055px;" class="animable"></polygon></g><polygon points="378.83 145 394.33 152.22 395.03 150.72 391.29 140.46 378.83 145" style="fill: rgb(64, 123, 255); transform-origin: 386.93px 146.34px;" id="el6hupr0v1una" class="animable"></polygon><g id="el8ves7nm9ilw"><polygon points="378.83 145 394.33 152.22 395.03 150.72 391.29 140.46 378.83 145" style="fill: rgb(255, 255, 255); opacity: 0.4; transform-origin: 386.93px 146.34px;" class="animable"></polygon></g><path d="M386.51,135.73a3,3,0,1,1-1.48-4A3,3,0,0,1,386.51,135.73Z" style="fill: rgb(255, 255, 255); transform-origin: 383.791px 134.462px;" id="elr0tfrb5juz" class="animable"></path><path d="M366.21,152l1.92-.17a1.19,1.19,0,0,0,.78,1.16.93.93,0,0,0,1.41-.44l2.42-5.19,1.74.82-2.41,5.18a2.78,2.78,0,0,1-4,1.33A3,3,0,0,1,366.21,152Z" style="fill: rgb(255, 255, 255); transform-origin: 370.345px 151.222px;" id="el1b59ph7q6cc" class="animable"></path><path d="M380.08,154a2.89,2.89,0,0,1-3.89,1.37l-1.14-.53-1.12,2.4-1.75-.82,3.56-7.64,2.89,1.35A2.89,2.89,0,0,1,380.08,154Zm-1.74-.82a1,1,0,0,0-.47-1.41l-1.15-.54-.91,2,1.14.53A1,1,0,0,0,378.34,153.16Z" style="fill: rgb(255, 255, 255); transform-origin: 376.266px 153.01px;" id="el8a19mxeitft" class="animable"></path><path d="M387.81,159.3a3.94,3.94,0,0,1-5.52,2,4.39,4.39,0,1,1,3.59-8,4.3,4.3,0,0,1,2.52,3.3l-1.88.16a2.53,2.53,0,0,0-4.76-.52,2.43,2.43,0,0,0,1.35,3.37,2.1,2.1,0,0,0,2.5-.27l-2-1,.71-1.53,3.83,1.79Z" style="fill: rgb(255, 255, 255); transform-origin: 383.945px 157.294px;" id="elcjgxlz1y2i" class="animable"></path><path d="M333.7,174.5l-23.65,3.75a.75.75,0,0,1-.85-.62l-5-31.62a.75.75,0,0,1,.62-.86l14.56-2.31,11.39,8.35,3.56,22.46A.75.75,0,0,1,333.7,174.5Z" style="fill: rgb(64, 123, 255); transform-origin: 319.264px 160.549px;" id="el5a9xsbvb95u" class="animable"></path><g id="eljr2p6pvg9dr"><polygon points="330.76 151.19 319.37 142.84 318.6 142.97 320.51 155.04 331.11 153.36 330.76 151.19" style="opacity: 0.1; transform-origin: 324.855px 148.94px;" class="animable"></polygon></g><polygon points="330.75 151.11 320.93 152.66 319.37 142.84 330.75 151.11" style="fill: none; transform-origin: 325.06px 147.75px;" id="elhpxvv5p51x" class="animable"></polygon><g id="elg6f6udn8v6i"><polygon points="330.75 151.11 320.93 152.66 319.37 142.84 330.75 151.11" style="opacity: 0.2; transform-origin: 325.06px 147.75px;" class="animable"></polygon></g><path d="M317.62,160.93l-4.35.69-.5,2.34-.69.11,2-9.21.69-.11,4.73,8.14-.69.11Zm-.34-.58-2.73-4.74L313.42,161Z" style="fill: rgb(255, 255, 255); transform-origin: 315.79px 159.41px;" id="el69m47o9g6v" class="animable"></path><path d="M326.4,155.45l.94,5.9a2.89,2.89,0,0,1-2.63,3.4,3.08,3.08,0,0,1-3.16-1l.5-.39a2.42,2.42,0,0,0,2.57.82,2.24,2.24,0,0,0,2.1-2.7l-.18-1.14a3,3,0,0,1-2.42,2,3.28,3.28,0,0,1-1-6.47A3,3,0,0,1,326,157l-.23-1.44Zm-.13,3.2a2.66,2.66,0,1,0-2.2,3A2.64,2.64,0,0,0,326.27,158.65Z" style="fill: rgb(255, 255, 255); transform-origin: 323.966px 160.152px;" id="elgxor88sk9le" class="animable"></path><path d="M314.61,172.16a2.72,2.72,0,1,1,3.11,2.26A2.69,2.69,0,0,1,314.61,172.16Zm4.19-.66a1.52,1.52,0,1,0-1.26,1.77A1.48,1.48,0,0,0,318.8,171.5Z" style="fill: rgb(255, 255, 255); transform-origin: 317.296px 171.735px;" id="eliolnq1oh87h" class="animable"></path><path d="M323.6,169.25l-1.33.21.64,4-1.19.18-.63-4-1.33.21-.18-1.14,3.84-.6Z" style="fill: rgb(255, 255, 255); transform-origin: 321.59px 170.875px;" id="elkj23zky3lh" class="animable"></path><path d="M325.3,169l.15,1,1.93-.3.18,1.13-1.92.31.3,1.9-1.19.18-.81-5.17,3.13-.49.18,1.13Z" style="fill: rgb(255, 255, 255); transform-origin: 325.75px 170.39px;" id="el4od6joajq6n" class="animable"></path><path d="M356.27,140,325,138.38a1,1,0,0,1-.92-1l2.19-41.85a1,1,0,0,1,1-.92l19.27,1,12.31,13.78-1.55,29.72A1,1,0,0,1,356.27,140Z" style="fill: rgb(64, 123, 255); transform-origin: 341.465px 117.305px;" id="elvnf0dqzktnn" class="animable"></path><g id="elwzcgesfwr8r"><polygon points="358.85 109.37 346.55 95.59 345.52 95.53 344.69 111.51 358.7 112.24 358.85 109.37" style="opacity: 0.1; transform-origin: 351.77px 103.885px;" class="animable"></polygon></g><polygon points="358.86 109.26 345.86 108.58 346.55 95.59 358.86 109.26" style="fill: none; transform-origin: 352.36px 102.425px;" id="ele30ymeyaos4" class="animable"></polygon><g id="el7yp0m1l2joa"><polygon points="358.86 109.26 345.86 108.58 346.55 95.59 358.86 109.26" style="opacity: 0.2; transform-origin: 352.36px 102.425px;" class="animable"></polygon></g><path d="M337.34,134l-.08,1.51-4.3-.23.35-6.84,4.26.22-.08,1.51L334.8,130l-.06,1.13,2.44.13-.07,1.48-2.45-.12-.06,1.21Z" style="fill: rgb(255, 255, 255); transform-origin: 335.265px 131.975px;" id="el5w8zxyt1nnh" class="animable"></path><path d="M343.36,131.32a2.36,2.36,0,0,1-2.52,2.22l-1-.06-.12,2.15-1.56-.08.36-6.84,2.59.14A2.35,2.35,0,0,1,343.36,131.32Zm-1.56-.09a.85.85,0,0,0-.79-.92l-1-.05-.09,1.76,1,0A.84.84,0,0,0,341.8,131.23Z" style="fill: rgb(255, 255, 255); transform-origin: 340.762px 132.17px;" id="eljeoczvz6w6e" class="animable"></path><path d="M343.45,134.27l1.39-.71a1.44,1.44,0,0,0,1.39,1c.74,0,.94-.24,1-.5,0-.42-.36-.61-1.37-1s-2-.88-1.91-2.19a2.15,2.15,0,0,1,2.41-2,2.67,2.67,0,0,1,2.42,1.68l-1.36.7a1.2,1.2,0,0,0-1.14-.85c-.49,0-.75.2-.76.48s.14.53,1.18.91,2.17.79,2.09,2.24-1.16,2-2.65,2A2.71,2.71,0,0,1,343.45,134.27Z" style="fill: rgb(255, 255, 255); transform-origin: 346.122px 132.444px;" id="elu0qxgaqntb" class="animable"></path><path d="M345,124.92l-.32-.36a8.75,8.75,0,0,0-11.71-13l-.33-.37a9.24,9.24,0,0,1,15.41,7.35A9.15,9.15,0,0,1,345,124.92Z" style="fill: rgb(255, 255, 255); transform-origin: 340.351px 116.868px;" id="elr1kat68zfym" class="animable"></path><g id="el3cd6ceqx20u"><rect x="345.29" y="103.92" width="0.49" height="16.24" style="fill: rgb(255, 255, 255); transform-origin: 345.535px 112.04px; transform: rotate(-42deg);" class="animable"></rect></g><g id="elfuib9c64e36"><rect x="331.74" y="110.28" width="2.2" height="2.2" style="fill: rgb(38, 50, 56); transform-origin: 332.84px 111.38px; transform: rotate(3deg);" class="animable"></rect></g><g id="el5whcnhevrer"><rect x="343.77" y="123.65" width="2.2" height="2.2" style="fill: rgb(38, 50, 56); transform-origin: 344.87px 124.75px; transform: rotate(3deg);" class="animable"></rect></g><g id="elypr1j80noo"><rect x="344.44" y="110.94" width="2.2" height="2.2" style="fill: rgb(38, 50, 56); transform-origin: 345.54px 112.04px; transform: rotate(3deg);" class="animable"></rect></g><g id="eluw5go0vfp77"><rect x="339.01" y="104.91" width="2.2" height="2.2" style="fill: rgb(38, 50, 56); transform-origin: 340.11px 106.01px; transform: rotate(3deg);" class="animable"></rect></g><g id="el8y37mdrq86x"><rect x="349.87" y="116.98" width="2.2" height="2.2" style="fill: rgb(38, 50, 56); transform-origin: 350.97px 118.08px; transform: rotate(3deg);" class="animable"></rect></g><polygon points="306.76 106.74 309.66 109.61 313.6 108.57 314.68 112.51 318.62 113.58 317.58 117.53 320.45 120.43 317.58 123.33 318.62 127.28 314.68 128.35 313.6 132.29 309.66 131.25 306.76 134.12 303.86 131.25 299.91 132.29 298.83 128.35 294.9 127.28 295.94 123.33 293.06 120.43 295.94 117.53 294.9 113.58 298.83 112.51 299.91 108.57 303.86 109.61 306.76 106.74" style="fill: rgb(64, 123, 255); transform-origin: 306.755px 120.43px;" id="elbeew96gf3lf" class="animable"></polygon><path d="M304.82,117.41a1.29,1.29,0,0,1-1.39,1.26h-1.81v-4.31h1.68a1.26,1.26,0,0,1,1.36,1.24,1.09,1.09,0,0,1-.37.84A1.1,1.1,0,0,1,304.82,117.41Zm-2.22-2.12v.76h.7a.37.37,0,0,0,.38-.38.36.36,0,0,0-.38-.38Zm1.23,2a.39.39,0,0,0-.4-.42h-.83v.83h.83A.39.39,0,0,0,303.83,117.34Z" style="fill: rgb(255, 255, 255); transform-origin: 303.22px 116.515px;" id="elkk6fjcqkelb" class="animable"></path><path d="M306.63,114.36v4.31h-1v-4.31Z" style="fill: rgb(255, 255, 255); transform-origin: 306.13px 116.515px;" id="elsw0x1nkqkyr" class="animable"></path><path d="M311.9,116.64a2,2,0,0,1-2.13,2.12,2.24,2.24,0,1,1-.06-4.48,2.19,2.19,0,0,1,1.88,1l-.84.48a1.3,1.3,0,0,0-2.32.79,1.25,1.25,0,0,0,1.36,1.27,1.07,1.07,0,0,0,1.1-.67h-1.15v-.86h2.16Z" style="fill: rgb(255, 255, 255); transform-origin: 309.702px 116.522px;" id="ely3n9f4zscsc" class="animable"></path><path d="M303.86,122.67a2.08,2.08,0,0,1-2.09,2.15h-1.72v-4.31h1.72A2.09,2.09,0,0,1,303.86,122.67Zm-.94,0a1.11,1.11,0,0,0-1.15-1.21H301v2.41h.74A1.11,1.11,0,0,0,302.92,122.67Z" style="fill: rgb(255, 255, 255); transform-origin: 301.956px 122.665px;" id="elvdr8degt5k" class="animable"></path><path d="M307.4,123.87v.95h-2.7v-4.31h2.67v.95h-1.69v.72h1.54v.93h-1.54v.76Z" style="fill: rgb(255, 255, 255); transform-origin: 306.05px 122.665px;" id="elealx2pnyx9i" class="animable"></path><path d="M310.8,124.14h-1.6l-.22.68h-1.07l1.46-4.31h1.26l1.46,4.31H311Zm-.3-.92-.5-1.58-.51,1.58Z" style="fill: rgb(255, 255, 255); transform-origin: 310px 122.665px;" id="eli87mg6koifl" class="animable"></path><path d="M315.22,123.87v.95H312.7v-4.31h1v3.36Z" style="fill: rgb(255, 255, 255); transform-origin: 313.96px 122.665px;" id="elkz3o1iqqh9" class="animable"></path><path d="M396,180.13h0a4.07,4.07,0,0,0,3.49,2h0a4.05,4.05,0,0,1,4,4h0a4.08,4.08,0,0,0,2,3.49h0a4.07,4.07,0,0,1,1.48,5.52h0a4,4,0,0,0,0,4h0a4.07,4.07,0,0,1-1.48,5.52h0a4.07,4.07,0,0,0-2,3.48h0a4.07,4.07,0,0,1-4,4.05h0a4.05,4.05,0,0,0-3.49,2h0a4.07,4.07,0,0,1-5.52,1.48h0a4.06,4.06,0,0,0-4,0h0a4.08,4.08,0,0,1-5.53-1.48h0a4,4,0,0,0-3.48-2h0a4.07,4.07,0,0,1-4-4.05h0a4.07,4.07,0,0,0-2-3.48h0a4.07,4.07,0,0,1-1.48-5.52h0a4,4,0,0,0,0-4h0a4.07,4.07,0,0,1,1.48-5.52h0a4.08,4.08,0,0,0,2-3.49h0a4.05,4.05,0,0,1,4-4h0a4.06,4.06,0,0,0,3.48-2h0a4.06,4.06,0,0,1,5.53-1.48h0a4.06,4.06,0,0,0,4,0h0A4,4,0,0,1,396,180.13Z" style="fill: rgb(64, 123, 255); transform-origin: 388.48px 197.147px;" id="elaryprmf9anp" class="animable"></path><g id="elgjq8bt2dhls"><path d="M396,180.13h0a4.07,4.07,0,0,0,3.49,2h0a4.05,4.05,0,0,1,4,4h0a4.08,4.08,0,0,0,2,3.49h0a4.07,4.07,0,0,1,1.48,5.52h0a4,4,0,0,0,0,4h0a4.07,4.07,0,0,1-1.48,5.52h0a4.07,4.07,0,0,0-2,3.48h0a4.07,4.07,0,0,1-4,4.05h0a4.05,4.05,0,0,0-3.49,2h0a4.07,4.07,0,0,1-5.52,1.48h0a4.06,4.06,0,0,0-4,0h0a4.08,4.08,0,0,1-5.53-1.48h0a4,4,0,0,0-3.48-2h0a4.07,4.07,0,0,1-4-4.05h0a4.07,4.07,0,0,0-2-3.48h0a4.07,4.07,0,0,1-1.48-5.52h0a4,4,0,0,0,0-4h0a4.07,4.07,0,0,1,1.48-5.52h0a4.08,4.08,0,0,0,2-3.49h0a4.05,4.05,0,0,1,4-4h0a4.06,4.06,0,0,0,3.48-2h0a4.06,4.06,0,0,1,5.53-1.48h0a4.06,4.06,0,0,0,4,0h0A4,4,0,0,1,396,180.13Z" style="fill: rgb(255, 255, 255); opacity: 0.8; transform-origin: 388.48px 197.147px;" class="animable"></path></g><path d="M377.94,193.78l-.21,1.31-3.5-.55.95-6,1.36.21-.74,4.66Z" style="fill: rgb(64, 123, 255); transform-origin: 376.085px 191.815px;" id="elyl2zj755pt" class="animable"></path><path d="M379,189.75a.78.78,0,1,1,.65.89A.79.79,0,0,1,379,189.75Zm0,1.17,1.28.2-.68,4.26-1.28-.2Z" style="fill: rgb(64, 123, 255); transform-origin: 379.435px 192.235px;" id="elk2ng4qkbvzo" class="animable"></path><path d="M387.4,193.94l-.41,2.62-1.28-.21.39-2.5c.07-.43-.09-.73-.5-.8s-.71.19-.79.7l-.38,2.4-1.28-.2.4-2.51c.06-.42-.1-.73-.51-.79s-.71.19-.79.69l-.38,2.41-1.28-.21.68-4.26,1.27.2-.06.39a1.36,1.36,0,0,1,1.23-.33,1.29,1.29,0,0,1,1,.74,1.44,1.44,0,0,1,1.33-.36A1.61,1.61,0,0,1,387.4,193.94Z" style="fill: rgb(64, 123, 255); transform-origin: 384.023px 193.92px;" id="el0qxo2jetde2j" class="animable"></path><path d="M388.69,191.28a.78.78,0,1,1,.65.89A.79.79,0,0,1,388.69,191.28Zm-.05,1.17,1.28.2-.68,4.26-1.28-.2Z" style="fill: rgb(64, 123, 255); transform-origin: 389.1px 193.765px;" id="el5ouby9sbubu" class="animable"></path><path d="M392.32,194.29l-.24,1.51c-.06.37.25.45.82.5l-.18,1.16c-1.7-.09-2.11-.67-1.92-1.86l.24-1.51-.68-.11.19-1.23.68.11.13-.81,1.34-.18-.19,1.19.88.14-.19,1.23Z" style="fill: rgb(64, 123, 255); transform-origin: 391.875px 194.665px;" id="eluqu9ozghft" class="animable"></path><path d="M395.85,196.91a1.11,1.11,0,0,0,.87-.19l.93.75a2.2,2.2,0,0,1-2,.58,2.28,2.28,0,1,1,.62-4.52,2.18,2.18,0,0,1,1.81,2.6,2.44,2.44,0,0,1-.13.5l-3-.48A1,1,0,0,0,395.85,196.91Zm1-1.43a1,1,0,0,0-1.83-.29Z" style="fill: rgb(64, 123, 255); transform-origin: 395.901px 195.804px;" id="el0iu4bm83yhti" class="animable"></path><path d="M403.86,193.11l-.95,6-1.28-.2.06-.4a1.61,1.61,0,0,1-1.35.32,2.29,2.29,0,0,1,.71-4.51,1.6,1.6,0,0,1,1.19.72l.34-2.1ZM402,196.74a1,1,0,1,0-1.18.88A1,1,0,0,0,402,196.74Z" style="fill: rgb(64, 123, 255); transform-origin: 401.222px 196.025px;" id="eljfp7mxbw6pq" class="animable"></path><path d="M377.73,201.07a3.14,3.14,0,1,1,2.61,3.6A3.11,3.11,0,0,1,377.73,201.07Zm4.84.77a1.76,1.76,0,1,0-2,1.5A1.71,1.71,0,0,0,382.57,201.84Z" style="fill: rgb(64, 123, 255); transform-origin: 380.828px 201.568px;" id="elqtyz643pt1m" class="animable"></path><path d="M388.91,201.44l0,.09.8.12-.2,1.23-.79-.12-.48,3-1.28-.2.48-3-1.11-.17-.48,3-1.28-.2.48-3-.57-.09.2-1.22.57.09a1.71,1.71,0,0,1,2.36-1.5l-.2,1.23c-.47-.12-.81,0-.88.47l1.11.17v-.08a1.72,1.72,0,0,1,2.36-1.5L389.8,201C389.33,200.85,389,201,388.91,201.44Z" style="fill: rgb(64, 123, 255); transform-origin: 387.24px 202.55px;" id="eljln4ieu7b6" class="animable"></path><path d="M391.93,205.33a1.11,1.11,0,0,0,.87-.19l.93.75a2.2,2.2,0,0,1-2,.58,2.28,2.28,0,1,1,.62-4.52,2.19,2.19,0,0,1,1.81,2.6,2.62,2.62,0,0,1-.13.5l-3-.48A1,1,0,0,0,391.93,205.33Zm1-1.43a1,1,0,0,0-1.84-.29Z" style="fill: rgb(64, 123, 255); transform-origin: 391.98px 204.224px;" id="elr1wnza8lwca" class="animable"></path><path d="M397.87,202.86l-.23,1.45a1,1,0,0,0-1.43.77L395.9,207l-1.28-.2.68-4.27,1.28.2-.12.76A1.3,1.3,0,0,1,397.87,202.86Z" style="fill: rgb(64, 123, 255); transform-origin: 396.245px 204.765px;" id="elsl9dlkzekw" class="animable"></path><g id="el2stdduox6"><g style="opacity: 0.2; transform-origin: 389.045px 197.77px;" class="animable"><path d="M377.94,193.78l-.21,1.31-3.5-.55.95-6,1.36.21-.74,4.66Z" id="el3xtv2ijtlf5" class="animable" style="transform-origin: 376.085px 191.815px;"></path><path d="M379,189.75a.78.78,0,1,1,.65.89A.79.79,0,0,1,379,189.75Zm0,1.17,1.28.2-.68,4.26-1.28-.2Z" id="elmstfciuoo4o" class="animable" style="transform-origin: 379.435px 192.235px;"></path><path d="M387.4,193.94l-.41,2.62-1.28-.21.39-2.5c.07-.43-.09-.73-.5-.8s-.71.19-.79.7l-.38,2.4-1.28-.2.4-2.51c.06-.42-.1-.73-.51-.79s-.71.19-.79.69l-.38,2.41-1.28-.21.68-4.26,1.27.2-.06.39a1.36,1.36,0,0,1,1.23-.33,1.29,1.29,0,0,1,1,.74,1.44,1.44,0,0,1,1.33-.36A1.61,1.61,0,0,1,387.4,193.94Z" id="elqro70zaw1po" class="animable" style="transform-origin: 384.023px 193.92px;"></path><path d="M388.69,191.28a.78.78,0,1,1,.65.89A.79.79,0,0,1,388.69,191.28Zm-.05,1.17,1.28.2-.68,4.26-1.28-.2Z" id="elrrjrfsh7lb" class="animable" style="transform-origin: 389.1px 193.765px;"></path><path d="M392.32,194.29l-.24,1.51c-.06.37.25.45.82.5l-.18,1.16c-1.7-.09-2.11-.67-1.92-1.86l.24-1.51-.68-.11.19-1.23.68.11.13-.81,1.34-.18-.19,1.19.88.14-.19,1.23Z" id="ela8mx352zwzg" class="animable" style="transform-origin: 391.875px 194.665px;"></path><path d="M395.85,196.91a1.11,1.11,0,0,0,.87-.19l.93.75a2.2,2.2,0,0,1-2,.58,2.28,2.28,0,1,1,.62-4.52,2.18,2.18,0,0,1,1.81,2.6,2.44,2.44,0,0,1-.13.5l-3-.48A1,1,0,0,0,395.85,196.91Zm1-1.43a1,1,0,0,0-1.83-.29Z" id="elcdqjppc7d6p" class="animable" style="transform-origin: 395.901px 195.804px;"></path><path d="M403.86,193.11l-.95,6-1.28-.2.06-.4a1.61,1.61,0,0,1-1.35.32,2.29,2.29,0,0,1,.71-4.51,1.6,1.6,0,0,1,1.19.72l.34-2.1ZM402,196.74a1,1,0,1,0-1.18.88A1,1,0,0,0,402,196.74Z" id="el6xdzrj7egte" class="animable" style="transform-origin: 401.222px 196.025px;"></path><path d="M377.73,201.07a3.14,3.14,0,1,1,2.61,3.6A3.11,3.11,0,0,1,377.73,201.07Zm4.84.77a1.76,1.76,0,1,0-2,1.5A1.71,1.71,0,0,0,382.57,201.84Z" id="el466d0bi70ky" class="animable" style="transform-origin: 380.828px 201.568px;"></path><path d="M388.91,201.44l0,.09.8.12-.2,1.23-.79-.12-.48,3-1.28-.2.48-3-1.11-.17-.48,3-1.28-.2.48-3-.57-.09.2-1.22.57.09a1.71,1.71,0,0,1,2.36-1.5l-.2,1.23c-.47-.12-.81,0-.88.47l1.11.17v-.08a1.72,1.72,0,0,1,2.36-1.5L389.8,201C389.33,200.85,389,201,388.91,201.44Z" id="elmtt3rsvltcg" class="animable" style="transform-origin: 387.24px 202.55px;"></path><path d="M391.93,205.33a1.11,1.11,0,0,0,.87-.19l.93.75a2.2,2.2,0,0,1-2,.58,2.28,2.28,0,1,1,.62-4.52,2.19,2.19,0,0,1,1.81,2.6,2.62,2.62,0,0,1-.13.5l-3-.48A1,1,0,0,0,391.93,205.33Zm1-1.43a1,1,0,0,0-1.84-.29Z" id="elz5u6yta92q" class="animable" style="transform-origin: 391.98px 204.224px;"></path><path d="M397.87,202.86l-.23,1.45a1,1,0,0,0-1.43.77L395.9,207l-1.28-.2.68-4.27,1.28.2-.12.76A1.3,1.3,0,0,1,397.87,202.86Z" id="el8b6hsq9np1u" class="animable" style="transform-origin: 396.245px 204.765px;"></path></g></g></g><g id="freepik--Desk--inject-406" class="animable" style="transform-origin: 222.175px 294.42px;"><rect x="276.48" y="273.18" width="66.3" height="10" style="fill: rgb(64, 123, 255); transform-origin: 309.63px 278.18px;" id="elstiozcz94co" class="animable"></rect><g id="el5dey31f4u33"><rect x="276.48" y="273.18" width="66.3" height="10" style="fill: rgb(255, 255, 255); opacity: 0.6; transform-origin: 309.63px 278.18px;" class="animable"></rect></g><path d="M153.38,283.18H161a0,0,0,0,1,0,0V408.5a1.19,1.19,0,0,1-1.19,1.19h-5.28a1.19,1.19,0,0,1-1.19-1.19V283.18A0,0,0,0,1,153.38,283.18Z" style="fill: rgb(64, 123, 255); transform-origin: 157.17px 346.435px;" id="elb5zjxc7j3zl" class="animable"></path><g id="el6u3d6wvrxoc"><g style="opacity: 0.5; transform-origin: 157.17px 346.435px;" class="animable"><path d="M153.38,283.18H161a0,0,0,0,1,0,0V408.5a1.19,1.19,0,0,1-1.19,1.19h-5.28a1.19,1.19,0,0,1-1.19-1.19V283.18A0,0,0,0,1,153.38,283.18Z" style="fill: rgb(255, 255, 255); transform-origin: 157.17px 346.435px;" id="el1tmtffletm0i" class="animable"></path></g></g><path d="M330.72,283.18h7.65a0,0,0,0,1,0,0V408.5a1.19,1.19,0,0,1-1.19,1.19H331.9a1.19,1.19,0,0,1-1.19-1.19V283.18A0,0,0,0,1,330.72,283.18Z" style="fill: rgb(64, 123, 255); transform-origin: 334.54px 346.435px;" id="el3w59abcl8bn" class="animable"></path><g id="elv36jhx1y6e"><path d="M330.72,283.18h7.65a0,0,0,0,1,0,0V408.5a1.19,1.19,0,0,1-1.19,1.19H331.9a1.19,1.19,0,0,1-1.19-1.19V283.18A0,0,0,0,1,330.72,283.18Z" style="fill: rgb(255, 255, 255); opacity: 0.5; transform-origin: 334.54px 346.435px;" class="animable"></path></g><rect x="101.57" y="273.18" width="193.82" height="10" style="fill: rgb(64, 123, 255); transform-origin: 198.48px 278.18px;" id="el75wfz07rd9v" class="animable"></rect><g id="elpeo7o9sqdek"><rect x="101.57" y="273.18" width="193.82" height="10" style="fill: rgb(255, 255, 255); opacity: 0.7; transform-origin: 198.48px 278.18px;" class="animable"></rect></g><path d="M106,283.18h7.65a0,0,0,0,1,0,0V408.5a1.19,1.19,0,0,1-1.19,1.19h-5.28A1.19,1.19,0,0,1,106,408.5V283.18A0,0,0,0,1,106,283.18Z" style="fill: rgb(64, 123, 255); transform-origin: 109.825px 346.435px;" id="el47es1jcp3nc" class="animable"></path><g id="elo2zwwzy47b"><g style="opacity: 0.6; transform-origin: 109.825px 346.435px;" class="animable"><path d="M106,283.18h7.65a0,0,0,0,1,0,0V408.5a1.19,1.19,0,0,1-1.19,1.19h-5.28A1.19,1.19,0,0,1,106,408.5V283.18A0,0,0,0,1,106,283.18Z" style="fill: rgb(255, 255, 255); transform-origin: 109.825px 346.435px;" id="el60sxtwi6m03" class="animable"></path></g></g><path d="M283.33,283.18H291a0,0,0,0,1,0,0V408.5a1.19,1.19,0,0,1-1.19,1.19h-5.28a1.19,1.19,0,0,1-1.19-1.19V283.18A0,0,0,0,1,283.33,283.18Z" style="fill: rgb(64, 123, 255); transform-origin: 287.165px 346.435px;" id="ellu84gwb3j6" class="animable"></path><g id="el011yha43d30mm"><path d="M283.33,283.18H291a0,0,0,0,1,0,0V408.5a1.19,1.19,0,0,1-1.19,1.19h-5.28a1.19,1.19,0,0,1-1.19-1.19V283.18A0,0,0,0,1,283.33,283.18Z" style="fill: rgb(255, 255, 255); opacity: 0.6; transform-origin: 287.165px 346.435px;" class="animable"></path></g><path d="M178.62,270.84h-2.48a.47.47,0,0,1-.47-.47v-2.62a.47.47,0,0,1,.47-.47h1.78a.46.46,0,0,1,.45.35l.7,2.61A.47.47,0,0,1,178.62,270.84Z" style="fill: rgb(64, 123, 255); transform-origin: 177.379px 269.06px;" id="el25lxyjxk0sw" class="animable"></path><path d="M182,270.84h-2.48a.47.47,0,0,1-.47-.47v-2.62a.47.47,0,0,1,.47-.47h1.78a.46.46,0,0,1,.45.35l.7,2.61A.47.47,0,0,1,182,270.84Z" style="fill: rgb(64, 123, 255); transform-origin: 180.759px 269.06px;" id="eliso37qjt6jl" class="animable"></path><path d="M185.46,270.84H183a.47.47,0,0,1-.47-.47v-2.62a.47.47,0,0,1,.47-.47h1.78a.46.46,0,0,1,.45.35l.7,2.61A.47.47,0,0,1,185.46,270.84Z" style="fill: rgb(64, 123, 255); transform-origin: 184.239px 269.06px;" id="el8q0l5br3c5v" class="animable"></path><path d="M188.88,270.84H186.4a.47.47,0,0,1-.47-.47v-2.62a.47.47,0,0,1,.47-.47h1.78a.46.46,0,0,1,.45.35l.7,2.61A.47.47,0,0,1,188.88,270.84Z" style="fill: rgb(64, 123, 255); transform-origin: 187.639px 269.06px;" id="elv1evmvc30pp" class="animable"></path><path d="M192.3,270.84h-2.48a.47.47,0,0,1-.47-.47v-2.62a.47.47,0,0,1,.47-.47h1.78a.48.48,0,0,1,.46.35l.69,2.61A.47.47,0,0,1,192.3,270.84Z" style="fill: rgb(64, 123, 255); transform-origin: 191.059px 269.06px;" id="el4neeuhcekvm" class="animable"></path><path d="M195.72,270.84h-2.48a.47.47,0,0,1-.47-.47v-2.62a.47.47,0,0,1,.47-.47H195a.48.48,0,0,1,.46.35l.69,2.61A.47.47,0,0,1,195.72,270.84Z" style="fill: rgb(64, 123, 255); transform-origin: 194.469px 269.06px;" id="elv6hde10q28" class="animable"></path><path d="M199.14,270.84h-2.48a.47.47,0,0,1-.47-.47v-2.62a.47.47,0,0,1,.47-.47h1.78a.48.48,0,0,1,.46.35l.69,2.61A.47.47,0,0,1,199.14,270.84Z" style="fill: rgb(64, 123, 255); transform-origin: 197.899px 269.06px;" id="eljeedyn5c15e" class="animable"></path><path d="M202.56,270.84h-2.48a.47.47,0,0,1-.47-.47v-2.62a.47.47,0,0,1,.47-.47h1.78a.48.48,0,0,1,.46.35l.69,2.61A.47.47,0,0,1,202.56,270.84Z" style="fill: rgb(64, 123, 255); transform-origin: 201.319px 269.06px;" id="el6jptnf6w1r8" class="animable"></path><path d="M206,270.84H203.5a.47.47,0,0,1-.47-.47v-2.62a.47.47,0,0,1,.47-.47h1.78a.48.48,0,0,1,.46.35l.69,2.61A.47.47,0,0,1,206,270.84Z" style="fill: rgb(64, 123, 255); transform-origin: 204.739px 269.06px;" id="elg5h04dgbeht" class="animable"></path><path d="M209.4,270.84h-2.48a.47.47,0,0,1-.47-.47v-2.62a.47.47,0,0,1,.47-.47h1.78a.48.48,0,0,1,.46.35l.69,2.61A.47.47,0,0,1,209.4,270.84Z" style="fill: rgb(64, 123, 255); transform-origin: 208.159px 269.06px;" id="elkuluc7zbxhl" class="animable"></path><path d="M212.82,270.84h-2.48a.47.47,0,0,1-.47-.47v-2.62a.47.47,0,0,1,.47-.47h1.78a.48.48,0,0,1,.46.35l.69,2.61A.47.47,0,0,1,212.82,270.84Z" style="fill: rgb(64, 123, 255); transform-origin: 211.579px 269.06px;" id="elpt9e6utqrxd" class="animable"></path><path d="M216.24,270.84h-2.48a.47.47,0,0,1-.47-.47v-2.62a.47.47,0,0,1,.47-.47h1.78a.48.48,0,0,1,.46.35l.69,2.61A.47.47,0,0,1,216.24,270.84Z" style="fill: rgb(64, 123, 255); transform-origin: 214.999px 269.06px;" id="elwuua5f9qazm" class="animable"></path><path d="M219.66,270.84h-2.48a.47.47,0,0,1-.47-.47v-2.62a.47.47,0,0,1,.47-.47H219a.48.48,0,0,1,.46.35l.69,2.61A.47.47,0,0,1,219.66,270.84Z" style="fill: rgb(64, 123, 255); transform-origin: 218.439px 269.061px;" id="elisg05e88txg" class="animable"></path><path d="M223.08,270.84H220.6a.47.47,0,0,1-.47-.47v-2.62a.47.47,0,0,1,.47-.47h1.78a.48.48,0,0,1,.46.35l.7,2.61A.48.48,0,0,1,223.08,270.84Z" style="fill: rgb(64, 123, 255); transform-origin: 221.843px 269.06px;" id="elzd4q38ysq7" class="animable"></path><path d="M226.5,270.84H224a.47.47,0,0,1-.47-.47v-2.62a.47.47,0,0,1,.47-.47h1.78a.47.47,0,0,1,.46.35l.7,2.61A.48.48,0,0,1,226.5,270.84Z" style="fill: rgb(64, 123, 255); transform-origin: 225.243px 269.06px;" id="elbpr6q6gxm2" class="animable"></path><g id="ela1eq9on3kqv"><g style="opacity: 0.6; transform-origin: 201.313px 269.061px;" class="animable"><path d="M178.62,270.84h-2.48a.47.47,0,0,1-.47-.47v-2.62a.47.47,0,0,1,.47-.47h1.78a.46.46,0,0,1,.45.35l.7,2.61A.47.47,0,0,1,178.62,270.84Z" style="fill: rgb(255, 255, 255); transform-origin: 177.379px 269.06px;" id="el7pkgygn2oa8" class="animable"></path><path d="M182,270.84h-2.48a.47.47,0,0,1-.47-.47v-2.62a.47.47,0,0,1,.47-.47h1.78a.46.46,0,0,1,.45.35l.7,2.61A.47.47,0,0,1,182,270.84Z" style="fill: rgb(255, 255, 255); transform-origin: 180.759px 269.06px;" id="elry2ijkw2bg9" class="animable"></path><path d="M185.46,270.84H183a.47.47,0,0,1-.47-.47v-2.62a.47.47,0,0,1,.47-.47h1.78a.46.46,0,0,1,.45.35l.7,2.61A.47.47,0,0,1,185.46,270.84Z" style="fill: rgb(255, 255, 255); transform-origin: 184.239px 269.06px;" id="el956wxeotw6r" class="animable"></path><path d="M188.88,270.84H186.4a.47.47,0,0,1-.47-.47v-2.62a.47.47,0,0,1,.47-.47h1.78a.46.46,0,0,1,.45.35l.7,2.61A.47.47,0,0,1,188.88,270.84Z" style="fill: rgb(255, 255, 255); transform-origin: 187.639px 269.06px;" id="elu58z04nip8i" class="animable"></path><path d="M192.3,270.84h-2.48a.47.47,0,0,1-.47-.47v-2.62a.47.47,0,0,1,.47-.47h1.78a.48.48,0,0,1,.46.35l.69,2.61A.47.47,0,0,1,192.3,270.84Z" style="fill: rgb(255, 255, 255); transform-origin: 191.059px 269.06px;" id="elc4755kjvuhp" class="animable"></path><path d="M195.72,270.84h-2.48a.47.47,0,0,1-.47-.47v-2.62a.47.47,0,0,1,.47-.47H195a.48.48,0,0,1,.46.35l.69,2.61A.47.47,0,0,1,195.72,270.84Z" style="fill: rgb(255, 255, 255); transform-origin: 194.469px 269.06px;" id="elis9mq2dgkr" class="animable"></path><path d="M199.14,270.84h-2.48a.47.47,0,0,1-.47-.47v-2.62a.47.47,0,0,1,.47-.47h1.78a.48.48,0,0,1,.46.35l.69,2.61A.47.47,0,0,1,199.14,270.84Z" style="fill: rgb(255, 255, 255); transform-origin: 197.899px 269.06px;" id="eln8yopfajpi" class="animable"></path><path d="M202.56,270.84h-2.48a.47.47,0,0,1-.47-.47v-2.62a.47.47,0,0,1,.47-.47h1.78a.48.48,0,0,1,.46.35l.69,2.61A.47.47,0,0,1,202.56,270.84Z" style="fill: rgb(255, 255, 255); transform-origin: 201.319px 269.06px;" id="elzs5sbce5r1d" class="animable"></path><path d="M206,270.84H203.5a.47.47,0,0,1-.47-.47v-2.62a.47.47,0,0,1,.47-.47h1.78a.48.48,0,0,1,.46.35l.69,2.61A.47.47,0,0,1,206,270.84Z" style="fill: rgb(255, 255, 255); transform-origin: 204.739px 269.06px;" id="elbq7qkirs10h" class="animable"></path><path d="M209.4,270.84h-2.48a.47.47,0,0,1-.47-.47v-2.62a.47.47,0,0,1,.47-.47h1.78a.48.48,0,0,1,.46.35l.69,2.61A.47.47,0,0,1,209.4,270.84Z" style="fill: rgb(255, 255, 255); transform-origin: 208.159px 269.06px;" id="elujigh9opgw" class="animable"></path><path d="M212.82,270.84h-2.48a.47.47,0,0,1-.47-.47v-2.62a.47.47,0,0,1,.47-.47h1.78a.48.48,0,0,1,.46.35l.69,2.61A.47.47,0,0,1,212.82,270.84Z" style="fill: rgb(255, 255, 255); transform-origin: 211.579px 269.06px;" id="elkgwxl9xpks" class="animable"></path><path d="M216.24,270.84h-2.48a.47.47,0,0,1-.47-.47v-2.62a.47.47,0,0,1,.47-.47h1.78a.48.48,0,0,1,.46.35l.69,2.61A.47.47,0,0,1,216.24,270.84Z" style="fill: rgb(255, 255, 255); transform-origin: 214.999px 269.06px;" id="eloqqee2mlap" class="animable"></path><path d="M219.66,270.84h-2.48a.47.47,0,0,1-.47-.47v-2.62a.47.47,0,0,1,.47-.47H219a.48.48,0,0,1,.46.35l.69,2.61A.47.47,0,0,1,219.66,270.84Z" style="fill: rgb(255, 255, 255); transform-origin: 218.439px 269.061px;" id="elcg12kskwsm" class="animable"></path><path d="M223.08,270.84H220.6a.47.47,0,0,1-.47-.47v-2.62a.47.47,0,0,1,.47-.47h1.78a.48.48,0,0,1,.46.35l.7,2.61A.48.48,0,0,1,223.08,270.84Z" style="fill: rgb(255, 255, 255); transform-origin: 221.843px 269.06px;" id="elpn2x58dgjn" class="animable"></path><path d="M226.5,270.84H224a.47.47,0,0,1-.47-.47v-2.62a.47.47,0,0,1,.47-.47h1.78a.47.47,0,0,1,.46.35l.7,2.61A.48.48,0,0,1,226.5,270.84Z" style="fill: rgb(255, 255, 255); transform-origin: 225.243px 269.06px;" id="elv0hu93o334k" class="animable"></path></g></g><rect x="173.65" y="269.06" width="55.34" height="4.12" style="fill: rgb(64, 123, 255); transform-origin: 201.32px 271.12px;" id="elibt7uhrd6y" class="animable"></rect><g id="ele1angb4qox"><rect x="173.65" y="269.06" width="55.34" height="4.12" style="fill: rgb(255, 255, 255); opacity: 0.5; transform-origin: 201.32px 271.12px;" class="animable"></rect></g><path d="M216.23,179.2h-6.62l4.89,70h6.62a1.84,1.84,0,0,0,1.85-2l-4.62-66A2.16,2.16,0,0,0,216.23,179.2Z" style="fill: rgb(64, 123, 255); transform-origin: 216.293px 214.2px;" id="elz1s1eatrt8" class="animable"></path><g id="ely917znhv8ts"><path d="M216.23,179.2h-6.62l4.89,70h6.62a1.84,1.84,0,0,0,1.85-2l-4.62-66A2.16,2.16,0,0,0,216.23,179.2Z" style="fill: rgb(255, 255, 255); opacity: 0.7; transform-origin: 216.293px 214.2px;" class="animable"></path></g><path d="M217.32,249.15H118.07a2.17,2.17,0,0,1-2.12-2l-4.61-66a1.83,1.83,0,0,1,1.84-2h99.25a2.16,2.16,0,0,1,2.12,2l4.62,66A1.84,1.84,0,0,1,217.32,249.15Z" style="fill: rgb(64, 123, 255); transform-origin: 165.255px 214.15px;" id="el01wx3ewdxywl" class="animable"></path><g id="elyyy51rxj7q"><path d="M217.32,249.15H118.07a2.17,2.17,0,0,1-2.12-2l-4.61-66a1.83,1.83,0,0,1,1.84-2h99.25a2.16,2.16,0,0,1,2.12,2l4.62,66A1.84,1.84,0,0,1,217.32,249.15Z" style="fill: rgb(255, 255, 255); opacity: 0.5; transform-origin: 165.255px 214.15px;" class="animable"></path></g><path d="M133.06,246.18h0a.68.68,0,0,1-.67-.63l-.17-2.38a.58.58,0,0,1,.59-.63h0a.69.69,0,0,1,.68.63l.16,2.38A.58.58,0,0,1,133.06,246.18Z" style="fill: rgb(64, 123, 255); transform-origin: 132.935px 244.36px;" id="el8v0p9xmxbpm" class="animable"></path><path d="M136,246.18h0a.7.7,0,0,1-.68-.63l-.16-2.38a.58.58,0,0,1,.59-.63h0a.69.69,0,0,1,.68.63l.16,2.38A.58.58,0,0,1,136,246.18Z" style="fill: rgb(64, 123, 255); transform-origin: 135.875px 244.36px;" id="ely818c9n46z" class="animable"></path><path d="M138.92,246.18h0a.7.7,0,0,1-.68-.63l-.16-2.38a.58.58,0,0,1,.59-.63h0a.68.68,0,0,1,.67.63l.17,2.38A.59.59,0,0,1,138.92,246.18Z" style="fill: rgb(64, 123, 255); transform-origin: 138.795px 244.36px;" id="elcdma389hlcj" class="animable"></path><path d="M129.33,244.36a1.67,1.67,0,0,1-1.69,1.82,2,2,0,0,1-2-1.82,1.68,1.68,0,0,1,1.7-1.82A2,2,0,0,1,129.33,244.36Z" style="fill: rgb(255, 255, 255); transform-origin: 127.485px 244.36px;" id="els24c7g5kac" class="animable"></path><path d="M128.8,244.36a1.19,1.19,0,0,1-1.2,1.29,1.4,1.4,0,0,1-1.37-1.29,1.18,1.18,0,0,1,1.19-1.29A1.41,1.41,0,0,1,128.8,244.36Z" style="fill: rgb(64, 123, 255); transform-origin: 127.515px 244.36px;" id="el6i1a19n712v" class="animable"></path><g id="elyr8cs9tyius"><path d="M161,233.67a2.39,2.39,0,0,0-2.42,2.47l.28,13H183.1l-1.54-13a2.83,2.83,0,0,0-2.76-2.47Zm9.9,14.39a5.44,5.44,0,0,1-5.34-5,4.59,4.59,0,0,1,4.64-5,5.43,5.43,0,0,1,5.33,5A4.59,4.59,0,0,1,170.92,248.06Z" style="opacity: 0.1; transform-origin: 170.839px 241.405px;" class="animable"></path></g><path d="M178.13,236.14a2.6,2.6,0,0,0-2.6-2.47H157.76a2.6,2.6,0,0,0-2.6,2.47l-1.78,37h26.53Zm-11.48,11.92a5,5,0,1,1,5-5A5,5,0,0,1,166.65,248.06Z" style="fill: rgb(64, 123, 255); transform-origin: 166.645px 253.405px;" id="eljly3kfdl6q" class="animable"></path><g id="elouxviqkukwj"><path d="M178.13,236.14a2.6,2.6,0,0,0-2.6-2.47H157.76a2.6,2.6,0,0,0-2.6,2.47l-1.78,37h26.53Zm-11.48,11.92a5,5,0,1,1,5-5A5,5,0,0,1,166.65,248.06Z" style="fill: rgb(255, 255, 255); opacity: 0.3; transform-origin: 166.645px 253.405px;" class="animable"></path></g><path d="M143.81,273.18H126.22v-1.56a5.36,5.36,0,0,1,5.64-5.35l6.89.38a5.35,5.35,0,0,1,5.06,5.34Z" style="fill: rgb(64, 123, 255); transform-origin: 135.015px 269.721px;" id="elk5tqi2cypu" class="animable"></path><g id="elylbv3atha1g"><path d="M143.81,273.18H126.22v-1.56a5.36,5.36,0,0,1,5.64-5.35l6.89.38a5.35,5.35,0,0,1,5.06,5.34Z" style="fill: rgb(255, 255, 255); opacity: 0.8; transform-origin: 135.015px 269.721px;" class="animable"></path></g></g><defs>     <filter id="active" height="200%">         <feMorphology in="SourceAlpha" result="DILATED" operator="dilate" radius="2"></feMorphology>                <feFlood flood-color="#32DFEC" flood-opacity="1" result="PINK"></feFlood>        <feComposite in="PINK" in2="DILATED" operator="in" result="OUTLINE"></feComposite>        <feMerge>            <feMergeNode in="OUTLINE"></feMergeNode>            <feMergeNode in="SourceGraphic"></feMergeNode>        </feMerge>    </filter>    <filter id="hover" height="200%">        <feMorphology in="SourceAlpha" result="DILATED" operator="dilate" radius="2"></feMorphology>                <feFlood flood-color="#ff0000" flood-opacity="0.5" result="PINK"></feFlood>        <feComposite in="PINK" in2="DILATED" operator="in" result="OUTLINE"></feComposite>        <feMerge>            <feMergeNode in="OUTLINE"></feMergeNode>            <feMergeNode in="SourceGraphic"></feMergeNode>        </feMerge>            <feColorMatrix type="matrix" values="0   0   0   0   0                0   1   0   0   0                0   0   0   0   0                0   0   0   1   0 "></feColorMatrix>    </filter></defs></svg>